<svg width="16" height="16" viewBox="0 0 16 16" fill="none" xmlns="http://www.w3.org/2000/svg">
<g clip-path="url(#clip0_4_26)">
<path fill-rule="evenodd" clip-rule="evenodd" d="M7.99992 0.833374C4.04188 0.833374 0.833252 4.042 0.833252 8.00004C0.833252 11.9581 4.04188 15.1667 7.99992 15.1667C11.958 15.1667 15.1666 11.9581 15.1666 8.00004C15.1666 4.042 11.958 0.833374 7.99992 0.833374ZM8.49992 5.33337C8.49992 5.05723 8.27605 4.83337 7.99992 4.83337C7.72378 4.83337 7.49992 5.05723 7.49992 5.33337V7.50004H5.33325C5.05711 7.50004 4.83325 7.72391 4.83325 8.00004C4.83325 8.27617 5.05711 8.50004 5.33325 8.50004H7.49992V10.6667C7.49992 10.9428 7.72378 11.1667 7.99992 11.1667C8.27605 11.1667 8.49992 10.9428 8.49992 10.6667V8.50004H10.6666C10.9427 8.50004 11.1666 8.27617 11.1666 8.00004C11.1666 7.72391 10.9427 7.50004 10.6666 7.50004H8.49992V5.33337Z" fill="white"/>
</g>
<defs>
<clipPath id="clip0_4_26">
<rect width="16" height="16" fill="white"/>
</clipPath>
</defs>
</svg>
